<svg xmlns="http://www.w3.org/2000/svg" viewBox="0 0 512 512" role="img" aria-label="Game Hub logo">
  <rect width="512" height="512" rx="92" fill="#2a125a" />
  <g fill="#b873ff">
    <path d="M154 177h204c23 0 42 19 42 42v76c0 19-15 34-34 34h-31c-9 0-17 4-24 11l-24 24c-18 18-46 18-64 0l-24-24c-7-7-15-11-24-11h-31c-19 0-34-15-34-34v-76c0-23 19-42 42-42Zm14 42c-9 0-16 7-16 16v60c0 6 5 11 11 11h31c20 0 39 8 53 22l24 24c8 8 20 8 28 0l24-24c14-14 33-22 53-22h31c6 0 11-5 11-11v-60c0-9-7-16-16-16H168Z" />
    <rect x="182" y="232" width="24" height="72" rx="12" />
    <rect x="158" y="256" width="72" height="24" rx="12" />
    <circle cx="303" cy="266" r="14" />
    <circle cx="342" cy="242" r="14" />
  </g>
</svg>
